<?xml version="1.0" encoding="iso-8859-1"?>
<!-- Generator: Adobe Illustrator 18.1.1, SVG Export Plug-In . SVG Version: 6.00 Build 0)  -->
<svg version="1.1" id="Capa_1" xmlns="http://www.w3.org/2000/svg" xmlns:xlink="http://www.w3.org/1999/xlink" x="0px" y="0px"
	 viewBox="0 0 301.982 301.982" style="enable-background:new 0 0 301.982 301.982;" xml:space="preserve">
<g>
	<g>
		<g>
			<path style="fill:#010002;" d="M279.068,0H22.915C10.274,0,0,10.274,0,22.915v256.142c0,12.64,10.274,22.926,22.915,22.926
				h256.153c12.635,0,22.915-10.285,22.915-22.926V22.92C301.982,10.274,291.702,0,279.068,0z M251.236,21.577h17.16v17.16h-17.16
				V21.577z M211.498,21.577h17.155v17.16h-17.155V21.577z M287.525,279.062c0,4.667-3.786,8.48-8.458,8.48H22.915
				c-4.672,0-8.48-3.807-8.48-8.479V64.475H287.52v214.587H287.525z"/>
		</g>
		<g>
			<polygon style="fill:#010002;" points="108.221,203.394 49.806,174.099 49.806,173.794 108.221,144.527 108.221,134.209 
				38.911,169.916 38.911,177.988 108.221,213.706 			"/>
		</g>
		<g>
			<polygon style="fill:#010002;" points="179.239,111.349 169.073,111.349 116.548,241.348 126.562,241.348 			"/>
		</g>
		<g>
			<polygon style="fill:#010002;" points="259.465,169.764 190.117,134.209 190.117,144.527 248.989,173.794 248.989,174.099 
				190.117,203.394 190.117,213.706 259.465,178.129 			"/>
		</g>
	</g>
</g>
<g>
</g>
<g>
</g>
<g>
</g>
<g>
</g>
<g>
</g>
<g>
</g>
<g>
</g>
<g>
</g>
<g>
</g>
<g>
</g>
<g>
</g>
<g>
</g>
<g>
</g>
<g>
</g>
<g>
</g>
</svg>
