<?xml version="1.0" encoding="iso-8859-1"?>
<!-- Generator: Adobe Illustrator 18.1.1, SVG Export Plug-In . SVG Version: 6.00 Build 0)  -->
<svg version="1.1" id="Capa_1" xmlns="http://www.w3.org/2000/svg" xmlns:xlink="http://www.w3.org/1999/xlink" x="0px" y="0px"
	 viewBox="0 0 479.329 479.329" style="enable-background:new 0 0 479.329 479.329;" xml:space="preserve">
<g>
	<g>
		<path style="fill:#010002;" d="M428.363,134.383c35.839-35.717,51.243-65.557,42.26-81.871c-1.634-2.975-4.04-5.357-6.917-7.291
			c-35.749,29.783-63.135,35.067-63.135,35.067c13.762-12.949,32.441-28.8,47.186-41.017c-5.999-1.13-12.29-1.512-17.98-1.512
			c-4.211,0-8.714,0.26-13.347,0.634c-75.303,42.756-226.999,127.098-136.097,60.151c25.824-19.021,47.707-33.864,66.15-45.455
			c-44.016,13.502-94.73,35.343-145.64,63.37c-63.151,34.742-118.572,74.474-156.077,111.841
			C8.928,264.018-6.476,293.85,2.507,310.172c1.577,2.861,3.885,5.154,6.617,7.047c38.253-32.644,125.31-103.769,195.842-137.95
			c83.578-40.505-83.131,63.655-175.845,144.721c4.828,0.658,9.714,0.951,14.225,0.951c53.023,0,140.746-30.149,228.933-78.701
			C335.429,211.483,390.857,171.75,428.363,134.383z M382.347,129.864c-57.428,64.655-189.558,116.962-189.558,116.962
			L382.347,129.864z"/>
		<path style="fill:#010002;" d="M286.104,275.959v0.91c10.778,1.577,20.59,8.405,28.426,18.883
			c12.485-1.13,41.626-1.317,81.96,13.802c54.713,20.517,0.122,14.509,0.122,14.509s-45.317-12.437-79.075-23.971
			c9.543,14.932,15.477,35.684,15.477,58.672c0,42.699-20.427,77.782-46.569,81.871v0.935
			c83.074-0.171,153.841-22.825,180.999-54.453c-61.216,31.206-124.741,26.832-124.741,26.832l133.073-39.692
			c2.317-5.145,3.568-10.453,3.552-15.891C479.231,312.643,392.719,275.739,286.104,275.959z"/>
		<path style="fill:#010002;" d="M324.878,358.764c0-37.44-17.306-69.434-38.757-73.653c-1.577-0.309-3.178-0.504-4.796-0.504
			c-23.605,0-43.553,33.961-43.553,74.157s19.948,74.157,43.553,74.157c1.723,0,3.414-0.236,5.097-0.585
			C307.726,427.882,324.878,396.026,324.878,358.764z M286.348,397.481c-1.618,0.569-3.292,0.91-5.023,0.91
			c-13.185,0-23.508-17.411-23.508-39.627c0-22.215,10.323-39.627,23.508-39.627c1.674,0,3.3,0.293,4.869,0.829
			c10.77,3.682,18.639,19.403,18.639,38.798C304.833,378.062,297.029,393.693,286.348,397.481z"/>
		<path style="fill:#010002;" d="M282.479,341.174c-4.763,0-8.616,7.373-8.616,16.469c0,9.096,3.861,16.468,8.616,16.468
			c1.374,0,2.658-0.675,3.812-1.772c2.837-2.699,4.804-8.234,4.804-14.696c0-6.511-1.992-12.087-4.861-14.761
			C285.096,341.824,283.837,341.174,282.479,341.174z"/>
	</g>
</g>
<g>
</g>
<g>
</g>
<g>
</g>
<g>
</g>
<g>
</g>
<g>
</g>
<g>
</g>
<g>
</g>
<g>
</g>
<g>
</g>
<g>
</g>
<g>
</g>
<g>
</g>
<g>
</g>
<g>
</g>
</svg>
